<svg width="136" height="16" viewBox="0 0 136 16" fill="none" xmlns="http://www.w3.org/2000/svg">
<path d="M0.62 0.899999H2.48L5.24 14.46H5.76L8.42 0.899999H12.46L15.12 14.46H15.64L18.4 0.899999H20.26L17.38 15H13.38L10.7 1.44H10.18L7.5 15H3.5L0.62 0.899999ZM20.7661 9.88C20.7661 8.30667 21.2128 7.07333 22.1061 6.18C23.0128 5.28667 24.1994 4.84 25.6661 4.84C27.1194 4.84 28.2794 5.27333 29.1461 6.14C30.0128 6.99333 30.4461 8.17333 30.4461 9.68V10.4H22.6461C22.6861 11.3467 22.9661 12.1133 23.4861 12.7C24.0194 13.2867 24.8328 13.58 25.9261 13.58C27.5261 13.58 28.4994 12.8867 28.8461 11.5H30.7861C30.5861 12.46 30.0861 13.32 29.2861 14.08C28.4994 14.8267 27.3794 15.2 25.9261 15.2C24.2061 15.2 22.9128 14.7 22.0461 13.7C21.1928 12.7 20.7661 11.4267 20.7661 9.88ZM22.6461 9.04H28.5661C28.5661 8.29333 28.3128 7.67333 27.8061 7.18C27.3128 6.68667 26.5994 6.44 25.6661 6.44C24.7328 6.44 23.9928 6.69333 23.4461 7.2C22.9128 7.69333 22.6461 8.30667 22.6461 9.04ZM32.963 15V0.3H34.903V6.32L34.563 7.58H35.103C35.343 6.76667 35.7963 6.10667 36.463 5.6C37.143 5.09333 38.0296 4.84 39.123 4.84C40.5363 4.84 41.663 5.32667 42.503 6.3C43.3563 7.27333 43.783 8.50667 43.783 10C43.783 11.5067 43.3563 12.7533 42.503 13.74C41.663 14.7133 40.5363 15.2 39.123 15.2C38.0296 15.2 37.143 14.9467 36.463 14.44C35.7963 13.9333 35.343 13.2667 35.103 12.44H34.563L34.903 13.72V15H32.963ZM34.903 10C34.903 11.1733 35.223 12.0533 35.863 12.64C36.5163 13.2267 37.3763 13.52 38.443 13.52C39.483 13.52 40.3096 13.2333 40.923 12.66C41.5363 12.0733 41.843 11.1867 41.843 10C41.843 8.82667 41.5363 7.95333 40.923 7.38C40.3096 6.80667 39.483 6.52 38.443 6.52C37.3763 6.52 36.5163 6.81333 35.863 7.4C35.223 7.97333 34.903 8.84 34.903 10ZM46.0294 15V0.899999H49.9094L53.5294 14.46H54.0694L57.6894 0.899999H61.5694V15H59.6294V2.76L59.9494 1.44H59.4294L55.7294 15H51.8494L48.1694 1.44H47.6294L47.9694 2.76V15H46.0294ZM63.6177 10C63.6177 8.49333 64.111 7.26 65.0977 6.3C66.0843 5.32667 67.371 4.84 68.9577 4.84C70.531 4.84 71.811 5.32667 72.7977 6.3C73.7843 7.26 74.2777 8.49333 74.2777 10C74.2777 11.52 73.7843 12.7667 72.7977 13.74C71.811 14.7133 70.531 15.2 68.9577 15.2C67.371 15.2 66.0843 14.72 65.0977 13.76C64.111 12.7867 63.6177 11.5333 63.6177 10ZM65.5577 10C65.5577 11.04 65.8577 11.8867 66.4577 12.54C67.0577 13.1933 67.891 13.52 68.9577 13.52C70.011 13.52 70.831 13.1933 71.4177 12.54C72.0177 11.8867 72.3177 11.04 72.3177 10C72.3177 8.97333 72.0177 8.14 71.4177 7.5C70.831 6.84667 70.011 6.52 68.9577 6.52C67.891 6.52 67.0577 6.84667 66.4577 7.5C65.8577 8.14 65.5577 8.97333 65.5577 10ZM81.7414 6.52C80.7014 6.52 79.8681 6.89333 79.2414 7.64C78.6147 8.37333 78.3014 9.4 78.3014 10.72V15H76.3614V5.04H78.3014V6.66L77.9614 7.92H78.5014C78.7147 6.97333 79.1414 6.22667 79.7814 5.68C80.4347 5.12 81.2814 4.84 82.3214 4.84C83.5081 4.84 84.4347 5.2 85.1014 5.92C85.7814 6.62667 86.1214 7.66667 86.1214 9.04V15H84.1614V9.32C84.1614 8.32 83.9681 7.60667 83.5814 7.18C83.2081 6.74 82.5947 6.52 81.7414 6.52ZM96.7089 12.38C96.7089 13.2333 96.3889 13.92 95.7489 14.44C95.1089 14.9467 94.0689 15.2 92.6289 15.2C89.5089 15.2 87.9489 13.9133 87.9489 11.34H89.8889C89.8889 12.8867 90.8156 13.66 92.6689 13.66C93.3889 13.66 93.9156 13.5667 94.2489 13.38C94.5956 13.18 94.7689 12.86 94.7689 12.42C94.7689 12.26 94.7489 12.1133 94.7089 11.98C94.6689 11.8467 94.5889 11.7267 94.4689 11.62C94.3622 11.5133 94.2622 11.4267 94.1689 11.36C94.0889 11.2933 93.9356 11.22 93.7089 11.14C93.4956 11.0467 93.3356 10.98 93.2289 10.94C93.1222 10.9 92.9156 10.8333 92.6089 10.74C92.3022 10.6467 92.0822 10.58 91.9489 10.54C91.3622 10.3533 90.9022 10.2 90.5689 10.08C90.2356 9.94667 89.8756 9.76 89.4889 9.52C89.1156 9.28 88.8422 8.99333 88.6689 8.66C88.4956 8.32667 88.4089 7.93333 88.4089 7.48C88.4089 6.66667 88.7422 6.02667 89.4089 5.56C90.0756 5.08 90.9956 4.84 92.1689 4.84C93.6356 4.84 94.7022 5.16667 95.3689 5.82C96.0356 6.46 96.3689 7.26 96.3689 8.22H94.4289C94.4289 6.99333 93.6756 6.38 92.1689 6.38C90.9556 6.38 90.3489 6.74667 90.3489 7.48C90.3489 7.88 90.5156 8.18667 90.8489 8.4C91.1822 8.61333 91.7956 8.86667 92.6889 9.16C92.7822 9.18667 92.9756 9.24667 93.2689 9.34C93.5622 9.43333 93.7622 9.5 93.8689 9.54C93.9756 9.58 94.1556 9.64667 94.4089 9.74C94.6622 9.83333 94.8422 9.90667 94.9489 9.96C95.0689 10.0133 95.2289 10.1 95.4289 10.22C95.6289 10.3267 95.7756 10.4267 95.8689 10.52C95.9622 10.6133 96.0756 10.7333 96.2089 10.88C96.3422 11.0133 96.4356 11.1533 96.4889 11.3C96.5422 11.4467 96.5889 11.6133 96.6289 11.8C96.6822 11.9733 96.7089 12.1667 96.7089 12.38ZM101.846 13.54L105.406 13.32V15L101.346 15.2C100.866 15.2267 100.506 15.12 100.266 14.88C100.026 14.6267 99.9056 14.2533 99.9056 13.76V6.72H97.6856V5.04H99.9056V2.6L101.846 2V5.04H105.006V6.72H101.846V13.54ZM106.625 9.88C106.625 8.30667 107.072 7.07333 107.965 6.18C108.872 5.28667 110.059 4.84 111.525 4.84C112.979 4.84 114.139 5.27333 115.005 6.14C115.872 6.99333 116.305 8.17333 116.305 9.68V10.4H108.505C108.545 11.3467 108.825 12.1133 109.345 12.7C109.879 13.2867 110.692 13.58 111.785 13.58C113.385 13.58 114.359 12.8867 114.705 11.5H116.645C116.445 12.46 115.945 13.32 115.145 14.08C114.359 14.8267 113.239 15.2 111.785 15.2C110.065 15.2 108.772 14.7 107.905 13.7C107.052 12.7 106.625 11.4267 106.625 9.88ZM108.505 9.04H114.425C114.425 8.29333 114.172 7.67333 113.665 7.18C113.172 6.68667 112.459 6.44 111.525 6.44C110.592 6.44 109.852 6.69333 109.305 7.2C108.772 7.69333 108.505 8.30667 108.505 9.04ZM118.744 15V6.28C118.744 5.78667 118.858 5.42 119.084 5.18C119.324 4.94 119.691 4.82667 120.184 4.84L125.924 5.04V6.72L120.684 6.54V15H118.744ZM135.85 12.38C135.85 13.2333 135.53 13.92 134.89 14.44C134.25 14.9467 133.21 15.2 131.77 15.2C128.65 15.2 127.09 13.9133 127.09 11.34H129.03C129.03 12.8867 129.956 13.66 131.81 13.66C132.53 13.66 133.056 13.5667 133.39 13.38C133.736 13.18 133.91 12.86 133.91 12.42C133.91 12.26 133.89 12.1133 133.85 11.98C133.81 11.8467 133.73 11.7267 133.61 11.62C133.503 11.5133 133.403 11.4267 133.31 11.36C133.23 11.2933 133.076 11.22 132.85 11.14C132.636 11.0467 132.476 10.98 132.37 10.94C132.263 10.9 132.056 10.8333 131.75 10.74C131.443 10.6467 131.223 10.58 131.09 10.54C130.503 10.3533 130.043 10.2 129.71 10.08C129.376 9.94667 129.016 9.76 128.63 9.52C128.256 9.28 127.983 8.99333 127.81 8.66C127.636 8.32667 127.55 7.93333 127.55 7.48C127.55 6.66667 127.883 6.02667 128.55 5.56C129.216 5.08 130.136 4.84 131.31 4.84C132.776 4.84 133.843 5.16667 134.51 5.82C135.176 6.46 135.51 7.26 135.51 8.22H133.57C133.57 6.99333 132.816 6.38 131.31 6.38C130.096 6.38 129.49 6.74667 129.49 7.48C129.49 7.88 129.656 8.18667 129.99 8.4C130.323 8.61333 130.936 8.86667 131.83 9.16C131.923 9.18667 132.116 9.24667 132.41 9.34C132.703 9.43333 132.903 9.5 133.01 9.54C133.116 9.58 133.296 9.64667 133.55 9.74C133.803 9.83333 133.983 9.90667 134.09 9.96C134.21 10.0133 134.37 10.1 134.57 10.22C134.77 10.3267 134.916 10.4267 135.01 10.52C135.103 10.6133 135.216 10.7333 135.35 10.88C135.483 11.0133 135.576 11.1533 135.63 11.3C135.683 11.4467 135.73 11.6133 135.77 11.8C135.823 11.9733 135.85 12.1667 135.85 12.38Z" fill="white"/>
</svg>
